<svg width="36" height="36" viewBox="0 0 36 36" fill="none" xmlns="http://www.w3.org/2000/svg">
<path d="M25.2487 27.0165C25.7369 27.5047 26.5284 27.5047 27.0165 27.0165C27.5047 26.5284 27.5047 25.7369 27.0165 25.2487L11.1066 9.33884C10.6184 8.85069 9.82699 8.85069 9.33884 9.33884C8.85068 9.827 8.85068 10.6185 9.33884 11.1066L25.2487 27.0165Z" fill="white"/>
<path d="M9.33877 25.2487C8.85062 25.7369 8.85062 26.5284 9.33877 27.0165C9.82693 27.5047 10.6184 27.5047 11.1065 27.0165L27.0164 11.1066C27.5046 10.6184 27.5046 9.82699 27.0164 9.33884C26.5283 8.85068 25.7368 8.85068 25.2487 9.33884L9.33877 25.2487Z" fill="white"/>
</svg>
