<?xml version="1.0" encoding="iso-8859-1"?>
<!-- Uploaded to: SVG Repo, www.svgrepo.com, Generator: SVG Repo Mixer Tools -->
<svg fill="#000000" height="800px" width="800px" version="1.1" id="Layer_1" xmlns="http://www.w3.org/2000/svg" xmlns:xlink="http://www.w3.org/1999/xlink" 
	 viewBox="0 0 512 512" xml:space="preserve">
<g>
	<g>
		<path d="M512,233.361v-56.654c0-8.691-7.32-15.344-16.012-15.344h-27.005v-20.865c0-3.878-1.243-7.62-3.832-10.508l-30.682-34.32
			c-2.985-3.329-7.198-5.23-11.669-5.23s-8.708,1.902-11.693,5.23l-30.604,34.32c-2.589,2.887-3.847,6.629-3.847,10.508v20.865
			h-18.885v-20.865c0-3.878-1.252-7.62-3.841-10.508l-30.686-34.32c-2.985-3.329-7.201-5.23-11.672-5.23
			c-4.472,0-8.709,1.902-11.694,5.23l-30.595,34.32c-2.589,2.887-3.839,6.629-3.839,10.508v20.865h-18.885v-20.865
			c0-3.878-1.261-7.62-3.85-10.508l-30.692-34.32c-2.985-3.329-7.203-5.23-11.674-5.23s-8.71,1.902-11.695,5.23l-30.586,34.32
			c-2.589,2.887-3.831,6.629-3.831,10.508v20.865h-18.885v-20.865c0-3.878-1.271-7.62-3.859-10.508L100.79,95.672
			c-2.985-3.329-7.205-5.23-11.676-5.23c-4.472,0-8.711,1.902-11.696,5.23l-30.578,34.32c-2.589,2.886-3.822,6.629-3.822,10.507
			v20.865H16.012C7.32,161.363,0,168.016,0,176.708v56.654c0,8.691,7.32,16.133,16.012,16.133h27.005v47.213H16.012
			C7.32,296.708,0,303.856,0,312.547v56.654c0,8.691,7.32,15.637,16.012,15.637h27.005V405.4c0,8.691,6.668,16.159,15.36,16.159
			h61.553c8.691,0,15.415-7.468,15.415-16.159v-20.562h18.885V405.4c0,8.691,6.686,16.159,15.378,16.159h61.553
			c8.691,0,15.396-7.468,15.396-16.159v-20.562h18.885V405.4c0,8.691,6.704,16.159,15.396,16.159h61.553
			c8.691,0,15.378-7.468,15.378-16.159v-20.562h18.885V405.4c0,8.691,6.723,16.159,15.415,16.159h61.553
			c8.691,0,15.36-7.468,15.36-16.159v-20.562h27.005c8.691,0,16.012-6.946,16.012-15.637v-56.654c0-8.691-7.32-15.841-16.012-15.841
			h-27.003v-47.213h27.005v0.001C504.68,249.495,512,242.053,512,233.361z M43.016,353.363H31.475v-25.18h11.541V353.363z
			 M43.016,218.019H31.475v-25.18h11.541V218.019z M103.869,390.084H74.492V146.521l14.689-16.769l14.688,16.769V390.084z
			 M154.229,353.363h-18.885v-25.18h18.885V353.363z M154.229,296.708h-18.885v-47.213h18.885V296.708z M154.229,218.019h-18.885
			v-25.18h18.885V218.019z M215.082,390.084h-29.377V146.521l14.689-16.769l14.689,16.769V390.084z M265.443,353.363h-18.885v-25.18
			h18.885V353.363z M265.443,296.708h-18.885v-47.213h18.885V296.708z M265.443,218.019h-18.885v-25.18h18.885V218.019z
			 M326.295,390.084h-29.377V146.521l14.689-16.769l14.689,16.769V390.084z M376.656,353.363h-18.885v-25.18h18.885V353.363z
			 M376.656,296.708h-18.885v-47.213h18.885V296.708z M376.656,218.019h-18.885v-25.18h18.885V218.019z M437.508,390.085h-29.377
			V146.521l14.688-16.769l14.689,16.769V390.085z M480.525,328.183v25.18h-11.541v-25.18H480.525z M480.525,218.019h-11.541v-25.18
			h11.541V218.019z"/>
	</g>
</g>
</svg>