<?xml version="1.0" encoding="UTF-8" standalone="no"?>
<svg
   width="3172.2893"
   height="626.60779"
   viewBox="0 0 3172.2893 626.60779"
   version="1.1"
   id="svg6"
   sodipodi:docname="logo-horizontal.svg"
   inkscape:version="1.1.2 (b8e25be833, 2022-02-05)"
   xmlns:inkscape="http://www.inkscape.org/namespaces/inkscape"
   xmlns:sodipodi="http://sodipodi.sourceforge.net/DTD/sodipodi-0.dtd"
   xmlns="http://www.w3.org/2000/svg"
   xmlns:svg="http://www.w3.org/2000/svg">
  <defs
     id="defs10">
    <clipPath
       clipPathUnits="userSpaceOnUse"
       id="clipPath955">
      <rect
         style="fill:#000000;stroke:#ffffff;stroke-width:3.02362;stroke-linecap:round;stroke-linejoin:round"
         id="rect957"
         width="1191.5188"
         height="304.87219"
         x="234.94737"
         y="757.98499" />
    </clipPath>
    <clipPath
       clipPathUnits="userSpaceOnUse"
       id="clipPath1063">
      <path
         d="m 489.642,121.147 c -0.353,3.38 -0.642,8.105 -0.642,10.5 0,4.277 0.059,4.353 3.372,4.353 1.854,0 7.627,1.079 12.828,2.399 16.084,4.08 28.76,11.558 40.44,23.857 8.604,9.06 14.106,18.185 18.235,30.244 1.695,4.95 38.218,120.6 81.162,257 42.944,136.4 80.773,256.438 84.065,266.75 l 5.984,18.75 15.207,-0.018 15.207,-0.018 31.255,-96.732 c 17.19,-53.203 31.253,-97.228 31.25,-97.834 C 827.999,539.139 795.744,514 794.134,514 c -0.581,0 -1.685,2.138 -2.454,4.75 -0.769,2.612 -10.553,36.352 -21.742,74.977 L 749.594,663.954 675.808,427.727 C 629.49,279.44 602.024,190.011 602.028,187.5 c 0.004,-2.2 0.642,-6.998 1.419,-10.663 4.115,-19.417 17.282,-32.79 35.421,-35.974 l 6.368,-1.118 -0.652,-8.123 c -0.358,-4.467 -0.912,-10.034 -1.231,-12.372 l -0.58,-4.25 h -76.244 -76.244 l -0.643,6.147 m 367.562,4.463 0.296,6.623 5.5,1.715 c 12.49,3.896 22.061,10.993 28.729,21.3 5.99,9.26 8.405,17.045 8.609,27.752 l 0.162,8.5 -43.46,133.75 C 833.137,398.813 813.282,459 812.917,459 c -0.364,0 -30.975,-20.77 -68.024,-46.155 -37.048,-25.385 -68.155,-46.362 -69.127,-46.616 -1.048,-0.275 -1.772,0.093 -1.781,0.904 -0.008,0.752 3.255,14.116 7.25,29.699 l 7.265,28.331 152.69,105.798 152.691,105.797 16.059,0.409 16.06,0.408 -0.012,-8.537 c -0.01,-4.696 0.907,-69.963 2.03,-145.038 1.704,-113.879 2.299,-137.712 3.594,-143.812 4.873,-22.959 23.42,-43.332 46.176,-50.725 l 5.289,-1.718 -0.289,-8.123 -0.288,-8.122 -75,-1.648 c -41.25,-0.907 -75.075,-1.582 -75.166,-1.5 -0.092,0.081 0.561,5.442 1.45,11.913 l 1.616,11.766 4.05,1.019 c 20.351,5.125 36.362,17.643 45.034,35.21 7.66,15.516 7.348,9.029 6.643,137.879 l -0.627,114.638 -71,-49.316 c -39.05,-27.124 -71.131,-49.95 -71.291,-50.723 -0.161,-0.774 18.631,-63.919 41.76,-140.322 46.332,-153.057 45.592,-150.944 58.596,-167.198 13.952,-17.437 33.202,-30.123 55.458,-36.549 l 8.477,-2.447 v -7.361 -7.361 l -77.796,-0.256 -77.796,-0.256 0.296,6.622 m -442.992,136.516 0.288,9.127 6.5,2.208 c 20.323,6.905 36.594,20.576 45.993,38.643 l 4.007,7.701 -0.133,67.848 c -0.072,37.316 -0.41,93.99 -0.75,125.942 l -0.617,58.096 -3.985,7.904 c -5.187,10.288 -16.071,21.413 -26.015,26.59 -7.36,3.832 -17.163,6.815 -22.394,6.815 H 414 v 10.341 10.34 l 21.75,0.657 c 32.152,0.971 133.25,0.808 133.25,-0.215 0,-0.483 -0.709,-4.016 -1.575,-7.852 l -1.575,-6.975 -6.17,-2.898 c -21.322,-10.016 -39.818,-28.353 -49.2,-48.776 l -3.272,-7.122 -0.38,-129.25 C 506.62,360.163 506.509,302 506.583,302 c 0.074,0 20.561,13.78 45.526,30.623 24.965,16.842 46.254,30.864 47.31,31.16 1.429,0.401 1.767,0.145 1.326,-1.004 -0.325,-0.849 -4.319,-14.001 -8.874,-29.228 L 583.589,305.866 545.056,279.433 506.523,253 h -46.299 -46.299 l 0.287,9.126 M 430,806.851 l -2.5,0.739 -0.262,39.383 -0.262,39.384 -13.339,-24.428 c -23.403,-42.86 -27.723,-50.38 -30.263,-52.679 -2.08,-1.883 -3.629,-2.25 -9.496,-2.25 -12.029,0 -10.878,-5.545 -10.878,52.428 0,56.035 -0.606,51.572 7,51.572 7.564,0 6.995,3.46 7.047,-42.857 l 0.046,-41.643 2.591,5 c 5.545,10.702 38.661,70.201 41.011,73.684 4.175,6.189 14.23,7.982 18.85,3.361 l 2.455,-2.454 -0.015,-48.296 c -0.009,-26.562 -0.36,-48.836 -0.78,-49.498 -0.968,-1.522 -7.912,-2.418 -11.205,-1.446 m 117.75,-0.162 c -1.638,0.428 -1.75,3.742 -1.75,51.777 0,57.002 -0.579,52.548 6.832,52.52 2.017,-0.007 4.673,-0.283 5.901,-0.612 2.226,-0.596 2.234,-0.68 2.5,-25.543 l 0.267,-24.944 18.322,24.977 c 10.076,13.737 19.001,25.238 19.831,25.556 1.99,0.764 10.753,0.745 12.765,-0.027 3.583,-1.375 1.154,-5.641 -16.918,-29.719 -10.175,-13.556 -18.5,-25.108 -18.5,-25.671 0,-0.563 7.875,-10.477 17.5,-22.031 9.625,-11.555 17.5,-21.884 17.5,-22.955 0,-3.419 -6.362,-5.098 -12.792,-3.376 -1.423,0.382 -9.102,9.153 -20.25,23.132 L 561,852.29 v -22.11 c 0,-20.836 -0.111,-22.169 -1.934,-23.145 -1.927,-1.031 -7.986,-1.216 -11.316,-0.346 m 395.25,0.162 -2.5,0.739 -0.262,39.383 -0.262,39.384 -13.339,-24.428 c -23.403,-42.86 -27.723,-50.38 -30.263,-52.679 -2.08,-1.883 -3.629,-2.25 -9.496,-2.25 -12.029,0 -10.878,-5.545 -10.878,52.428 0,56.035 -0.606,51.572 7,51.572 7.564,0 6.995,3.46 7.047,-42.857 l 0.046,-41.643 2.591,5 c 5.545,10.702 38.661,70.201 41.011,73.684 4.175,6.189 14.23,7.982 18.85,3.361 l 2.455,-2.454 -0.015,-48.296 c -0.009,-26.562 -0.36,-48.836 -0.78,-49.498 -0.968,-1.522 -7.912,-2.418 -11.205,-1.446 m 41,10e-4 -2.5,0.738 v 50.918 50.917 l 3.31,0.949 c 2.031,0.583 4.734,0.597 7,0.038 l 3.69,-0.912 0.259,-50.441 c 0.143,-27.742 -0.082,-50.781 -0.5,-51.198 -1.179,-1.178 -8.477,-1.832 -11.259,-1.009 m 104,-10e-4 -2.5,0.739 -0.262,39.383 -0.262,39.384 -13.339,-24.428 c -23.403,-42.86 -27.723,-50.38 -30.263,-52.679 -2.08,-1.883 -3.629,-2.25 -9.496,-2.25 -12.029,0 -10.878,-5.545 -10.878,52.428 0,56.035 -0.606,51.572 7,51.572 7.564,0 6.995,3.46 7.047,-42.857 l 0.046,-41.643 2.591,5 c 5.545,10.702 38.661,70.201 41.011,73.684 4.175,6.189 14.23,7.982 18.85,3.361 l 2.455,-2.454 -0.015,-48.296 c -0.01,-26.562 -0.36,-48.836 -0.78,-49.498 -0.968,-1.522 -7.912,-2.418 -11.205,-1.446 m -619.412,1.704 c -1.407,1.407 -1.588,7.147 -1.588,50.394 0,40.141 0.244,49.008 1.372,49.945 0.971,0.805 9.387,1.061 28.75,0.872 L 524.5,909.5 V 904 898.5 L 503.25,898.23 482,897.96 V 880.48 863 h 16.929 c 14.056,0 17.195,-0.267 18.5,-1.571 1.793,-1.794 2.066,-6.635 0.536,-9.495 -0.963,-1.799 -2.257,-1.934 -18.5,-1.934 H 482 V 834.5 819 h 20.525 20.525 l 0.982,-2.583 c 0.569,-1.498 0.637,-3.915 0.162,-5.75 l -0.82,-3.167 -26.6,-0.266 c -23.197,-0.232 -26.802,-0.063 -28.186,1.321 m 162.662,-0.419 c -0.967,0.977 -1.25,12.643 -1.25,51.457 0,55.939 -0.63,51.407 7.148,51.407 8.086,0 7.852,0.715 7.852,-24.035 V 865 l 6.25,0.022 c 13.374,0.047 17.12,4.011 26.395,27.924 3.104,8.005 6.324,15.342 7.155,16.304 1.964,2.276 11.359,2.448 13.558,0.249 1.867,-1.867 1.593,-2.86 -5.786,-20.999 -6.692,-16.449 -9.293,-21.17 -13.879,-25.197 l -3.384,-2.97 4.421,-2.346 c 5.48,-2.907 10.579,-8.737 12.109,-13.845 1.451,-4.842 1.49,-14.418 0.08,-19.497 -1.457,-5.247 -7.869,-11.924 -14.192,-14.779 -4.834,-2.182 -6.73,-2.383 -25.227,-2.677 -15.139,-0.24 -20.304,-0.01 -21.25,0.947 m 88.338,0.419 c -1.407,1.407 -1.588,7.147 -1.588,50.394 0,40.141 0.244,49.008 1.372,49.945 0.971,0.805 9.387,1.061 28.75,0.872 L 775.5,909.5 V 904 898.5 L 754.25,898.23 733,897.96 V 880.48 863 h 16.929 c 14.056,0 17.195,-0.267 18.5,-1.571 1.793,-1.794 2.066,-6.635 0.536,-9.495 -0.963,-1.799 -2.257,-1.934 -18.5,-1.934 H 733 V 834.5 819 h 20.525 20.525 l 0.982,-2.583 c 0.569,-1.498 0.637,-3.915 0.162,-5.75 l -0.82,-3.167 -26.6,-0.266 c -23.197,-0.232 -26.802,-0.063 -28.186,1.321 m 66.091,-0.9 c -0.374,0.373 -0.679,2.838 -0.679,5.476 0,3.721 0.434,5.031 1.934,5.834 1.064,0.569 8.034,1.035 15.49,1.035 h 13.555 l 0.261,44.713 0.26,44.712 3.31,0.95 c 2.031,0.582 4.735,0.596 7,0.037 l 3.69,-0.912 0.26,-44.75 0.261,-44.75 h 13.798 c 16.604,0 17.447,-0.374 16.995,-7.533 L 861.5,807.5 823.929,807.238 c -20.665,-0.144 -37.877,0.044 -38.25,0.417 m 341.909,0.9 c -1.407,1.407 -1.588,7.147 -1.588,50.394 0,40.141 0.244,49.008 1.372,49.945 0.971,0.805 9.387,1.061 28.75,0.872 L 1183.5,909.5 v -5.5 -5.5 l -21.25,-0.27 -21.25,-0.27 V 880.48 863 h 16.929 c 14.056,0 17.195,-0.267 18.5,-1.571 1.793,-1.794 2.066,-6.635 0.536,-9.495 -0.963,-1.799 -2.257,-1.934 -18.5,-1.934 H 1141 V 834.5 819 h 20.525 20.525 l 0.982,-2.583 c 0.569,-1.498 0.637,-3.915 0.162,-5.75 l -0.82,-3.167 -26.6,-0.266 c -23.197,-0.232 -26.802,-0.063 -28.186,1.321 M 645,835.465 v 16.756 l 10.75,-0.37 c 8.873,-0.306 11.361,-0.75 14.25,-2.542 4.765,-2.956 7.107,-7.279 7.152,-13.208 0.09,-11.55 -5.679,-15.933 -22.164,-16.841 L 645,818.709 v 16.756"
         stroke="none"
         fill="#fffcfc"
         fill-rule="evenodd"
         id="path1065" />
    </clipPath>
    <clipPath
       clipPathUnits="userSpaceOnUse"
       id="clipPath2364">
      <rect
         style="fill:#ffffff;stroke:#ffffff;stroke-width:3.02362;stroke-linecap:round;stroke-linejoin:round"
         id="rect2366"
         width="1264.2406"
         height="864.27069"
         x="209.77443"
         y="-97.894737"
         clip-path="url(#clipPath1063)" />
    </clipPath>
  </defs>
  <sodipodi:namedview
     id="namedview8"
     pagecolor="#505050"
     bordercolor="#eeeeee"
     borderopacity="1"
     inkscape:pageshadow="0"
     inkscape:pageopacity="0"
     inkscape:pagecheckerboard="0"
     showgrid="false"
     fit-margin-top="0"
     fit-margin-left="0"
     fit-margin-right="0"
     fit-margin-bottom="0"
     inkscape:zoom="0.17876344"
     inkscape:cx="830.70677"
     inkscape:cy="931.3985"
     inkscape:window-width="1920"
     inkscape:window-height="991"
     inkscape:window-x="-9"
     inkscape:window-y="-9"
     inkscape:window-maximized="1"
     inkscape:current-layer="svg6"
     inkscape:snap-global="false" />
  <rect
     style="fill:#ffffff;stroke:none;stroke-width:2.45856;stroke-linecap:round;stroke-linejoin:round"
     id="rect2238"
     width="677.47058"
     height="626.60779"
     x="410.80612"
     y="111.10131"
     clip-path="url(#clipPath2364)"
     transform="translate(-410.80612,-111.10131)" />
  <path
     d=""
     stroke="none"
     fill="#fcfcfc"
     fill-rule="evenodd"
     id="path4" />
  <path
     d="m 430,806.851 -2.5,0.739 -0.262,39.383 -0.262,39.384 -13.339,-24.428 c -23.403,-42.86 -27.723,-50.38 -30.263,-52.679 -2.08,-1.883 -3.629,-2.25 -9.496,-2.25 -12.029,0 -10.878,-5.545 -10.878,52.428 0,56.035 -0.606,51.572 7,51.572 7.564,0 6.995,3.46 7.047,-42.857 l 0.046,-41.643 2.591,5 c 5.545,10.702 38.661,70.201 41.011,73.684 4.175,6.189 14.23,7.982 18.85,3.361 l 2.455,-2.454 -0.015,-48.296 c -0.009,-26.562 -0.36,-48.836 -0.78,-49.498 -0.968,-1.522 -7.912,-2.418 -11.205,-1.446 m 117.75,-0.162 c -1.638,0.428 -1.75,3.742 -1.75,51.777 0,57.002 -0.579,52.548 6.832,52.52 2.017,-0.007 4.673,-0.283 5.901,-0.612 2.226,-0.596 2.234,-0.68 2.5,-25.543 l 0.267,-24.944 18.322,24.977 c 10.076,13.737 19.001,25.238 19.831,25.556 1.99,0.764 10.753,0.745 12.765,-0.027 3.583,-1.375 1.154,-5.641 -16.918,-29.719 -10.175,-13.556 -18.5,-25.108 -18.5,-25.671 0,-0.563 7.875,-10.477 17.5,-22.031 9.625,-11.555 17.5,-21.884 17.5,-22.955 0,-3.419 -6.362,-5.098 -12.792,-3.376 -1.423,0.382 -9.102,9.153 -20.25,23.132 L 561,852.29 v -22.11 c 0,-20.836 -0.111,-22.169 -1.934,-23.145 -1.927,-1.031 -7.986,-1.216 -11.316,-0.346 m 395.25,0.162 -2.5,0.739 -0.262,39.383 -0.262,39.384 -13.339,-24.428 c -23.403,-42.86 -27.723,-50.38 -30.263,-52.679 -2.08,-1.883 -3.629,-2.25 -9.496,-2.25 -12.029,0 -10.878,-5.545 -10.878,52.428 0,56.035 -0.606,51.572 7,51.572 7.564,0 6.995,3.46 7.047,-42.857 l 0.046,-41.643 2.591,5 c 5.545,10.702 38.661,70.201 41.011,73.684 4.175,6.189 14.23,7.982 18.85,3.361 l 2.455,-2.454 -0.015,-48.296 c -0.009,-26.562 -0.36,-48.836 -0.78,-49.498 -0.968,-1.522 -7.912,-2.418 -11.205,-1.446 m 41,10e-4 -2.5,0.738 v 50.918 50.917 l 3.31,0.949 c 2.031,0.583 4.734,0.597 7,0.038 l 3.69,-0.912 0.259,-50.441 c 0.143,-27.742 -0.082,-50.781 -0.5,-51.198 -1.179,-1.178 -8.477,-1.832 -11.259,-1.009 m 104,-10e-4 -2.5,0.739 -0.262,39.383 -0.262,39.384 -13.339,-24.428 c -23.403,-42.86 -27.723,-50.38 -30.263,-52.679 -2.08,-1.883 -3.629,-2.25 -9.496,-2.25 -12.029,0 -10.878,-5.545 -10.878,52.428 0,56.035 -0.606,51.572 7,51.572 7.564,0 6.995,3.46 7.047,-42.857 l 0.046,-41.643 2.591,5 c 5.545,10.702 38.661,70.201 41.011,73.684 4.175,6.189 14.23,7.982 18.85,3.361 l 2.455,-2.454 -0.015,-48.296 c -0.01,-26.562 -0.36,-48.836 -0.78,-49.498 -0.968,-1.522 -7.912,-2.418 -11.205,-1.446 m -619.412,1.704 c -1.407,1.407 -1.588,7.147 -1.588,50.394 0,40.141 0.244,49.008 1.372,49.945 0.971,0.805 9.387,1.061 28.75,0.872 L 524.5,909.5 V 904 898.5 L 503.25,898.23 482,897.96 V 880.48 863 h 16.929 c 14.056,0 17.195,-0.267 18.5,-1.571 1.793,-1.794 2.066,-6.635 0.536,-9.495 -0.963,-1.799 -2.257,-1.934 -18.5,-1.934 H 482 V 834.5 819 h 20.525 20.525 l 0.982,-2.583 c 0.569,-1.498 0.637,-3.915 0.162,-5.75 l -0.82,-3.167 -26.6,-0.266 c -23.197,-0.232 -26.802,-0.063 -28.186,1.321 m 162.662,-0.419 c -0.967,0.977 -1.25,12.643 -1.25,51.457 0,55.939 -0.63,51.407 7.148,51.407 8.086,0 7.852,0.715 7.852,-24.035 V 865 l 6.25,0.022 c 13.374,0.047 17.12,4.011 26.395,27.924 3.104,8.005 6.324,15.342 7.155,16.304 1.964,2.276 11.359,2.448 13.558,0.249 1.867,-1.867 1.593,-2.86 -5.786,-20.999 -6.692,-16.449 -9.293,-21.17 -13.879,-25.197 l -3.384,-2.97 4.421,-2.346 c 5.48,-2.907 10.579,-8.737 12.109,-13.845 1.451,-4.842 1.49,-14.418 0.08,-19.497 -1.457,-5.247 -7.869,-11.924 -14.192,-14.779 -4.834,-2.182 -6.73,-2.383 -25.227,-2.677 -15.139,-0.24 -20.304,-0.01 -21.25,0.947 m 88.338,0.419 c -1.407,1.407 -1.588,7.147 -1.588,50.394 0,40.141 0.244,49.008 1.372,49.945 0.971,0.805 9.387,1.061 28.75,0.872 L 775.5,909.5 V 904 898.5 L 754.25,898.23 733,897.96 V 880.48 863 h 16.929 c 14.056,0 17.195,-0.267 18.5,-1.571 1.793,-1.794 2.066,-6.635 0.536,-9.495 -0.963,-1.799 -2.257,-1.934 -18.5,-1.934 H 733 V 834.5 819 h 20.525 20.525 l 0.982,-2.583 c 0.569,-1.498 0.637,-3.915 0.162,-5.75 l -0.82,-3.167 -26.6,-0.266 c -23.197,-0.232 -26.802,-0.063 -28.186,1.321 m 66.091,-0.9 c -0.374,0.373 -0.679,2.838 -0.679,5.476 0,3.721 0.434,5.031 1.934,5.834 1.064,0.569 8.034,1.035 15.49,1.035 h 13.555 l 0.261,44.713 0.26,44.712 3.31,0.95 c 2.031,0.582 4.735,0.596 7,0.037 l 3.69,-0.912 0.26,-44.75 0.261,-44.75 h 13.798 c 16.604,0 17.447,-0.374 16.995,-7.533 L 861.5,807.5 823.929,807.238 c -20.665,-0.144 -37.877,0.044 -38.25,0.417 m 341.909,0.9 c -1.407,1.407 -1.588,7.147 -1.588,50.394 0,40.141 0.244,49.008 1.372,49.945 0.971,0.805 9.387,1.061 28.75,0.872 L 1183.5,909.5 v -5.5 -5.5 l -21.25,-0.27 -21.25,-0.27 V 880.48 863 h 16.929 c 14.056,0 17.195,-0.267 18.5,-1.571 1.793,-1.794 2.066,-6.635 0.536,-9.495 -0.963,-1.799 -2.257,-1.934 -18.5,-1.934 H 1141 V 834.5 819 h 20.525 20.525 l 0.982,-2.583 c 0.569,-1.498 0.637,-3.915 0.162,-5.75 l -0.82,-3.167 -26.6,-0.266 c -23.197,-0.232 -26.802,-0.063 -28.186,1.321 M 645,835.465 v 16.756 l 10.75,-0.37 c 8.873,-0.306 11.361,-0.75 14.25,-2.542 4.765,-2.956 7.107,-7.279 7.152,-13.208 0.09,-11.55 -5.679,-15.933 -22.164,-16.841 L 645,818.709 v 16.756"
     stroke="none"
     fill="#fffcfc"
     fill-rule="evenodd"
     id="path827"
     clip-path="url(#clipPath955)"
     transform="matrix(2.8733977,0,0,2.8733977,-228.40332,-2123.2967)"
     sodipodi:nodetypes="ccccccsssccccccccccsccccccccscscccsccccccccssscccccccccccccccccccccccccsssccccccccccscccccccccsccsccccccccsccssscsccsccccccccccscccccccccsccsccccccccsccscsccccccccscccccscccccccccsccsccccccscsccccccccc" />
</svg>
